<svg width="100" height="100" viewBox="0 0 100 100" fill="none" xmlns="http://www.w3.org/2000/svg">
<path d="M42.6228 55.1817C43.7403 55.8864 44.674 56.3253 46.0206 56.7514C47.5032 57.228 48.7664 57.4277 50.3888 57.4276C53.1735 57.4292 55.7786 56.6831 58.1746 55.195C58.5477 54.9616 58.7892 54.7946 59.139 54.4882L58.1057 52.0704C55.1222 54.0434 51.3903 54.8094 47.8109 54.143C45.8938 53.7929 44.1011 53.04 42.5445 51.9707L41.5328 54.3767C41.9279 54.7229 42.1973 54.9136 42.6228 55.1817Z" fill="url(#paint0_linear_812_3)"/>
<ellipse cx="50.4225" cy="68.4489" rx="9.85114" ry="9.46575" fill="url(#paint1_linear_812_3)"/>
<path fill-rule="evenodd" clip-rule="evenodd" d="M48.3777 15.6409C51.0327 14.6102 54.0799 15.903 55.1838 18.5284L77.2125 70.9183C78.3164 73.5437 77.059 76.5076 74.404 77.5383C71.749 78.569 68.7018 77.2763 67.5979 74.6509L59.1252 54.5006C59.4015 54.2595 59.7443 53.9318 60.2749 53.4133C61.4508 52.2754 61.6859 52.0138 62.0967 51.4001C64.1449 48.3147 64.8523 44.7974 64.1145 41.3476C63.8925 40.311 63.8807 40.2997 63.8839 41.2181C63.9001 44.1375 63.0187 46.8334 61.298 49.0787C60.8282 49.7039 59.3878 51.1319 58.7817 51.5932C58.5606 51.7599 58.3345 51.9195 58.104 52.0718L45.5692 22.2609C44.4653 19.6355 45.7227 16.6717 48.3777 15.6409Z" fill="url(#paint2_linear_812_3)"/>
<path fill-rule="evenodd" clip-rule="evenodd" d="M52.2494 15.6242C49.5944 14.5934 46.5472 15.8862 45.4433 18.5116L23.4146 70.9015C22.3107 73.5269 23.5681 76.4908 26.2231 77.5215C28.8781 78.5522 31.9253 77.2595 33.0292 74.6341L41.5431 54.3858C41.2882 54.163 40.9814 53.8756 40.5458 53.46C39.4566 52.4094 39.2078 52.1382 38.7868 51.5218C37.4287 49.5141 36.684 47.4815 36.4578 45.2204C36.3351 43.883 36.4188 42.5165 36.709 41.1662C36.7846 40.8315 36.8543 40.5365 36.8661 40.5251C36.8778 40.5137 36.8974 41.0408 36.9115 41.6984C36.9476 43.586 37.325 45.2003 38.1332 46.8642C39.1301 48.9302 40.6701 50.6861 42.5554 51.9783L55.0579 22.2441C56.1618 19.6187 54.9044 16.6549 52.2494 15.6242Z" fill="url(#paint3_linear_812_3)"/>
<path d="M100 50C100 77.6142 77.6142 100 50 100C22.3858 100 0 77.6142 0 50C0 22.3858 22.3858 0 50 0C77.6142 0 100 22.3858 100 50ZM10.0238 50C10.0238 72.0782 27.9218 89.9762 50 89.9762C72.0782 89.9762 89.9762 72.0782 89.9762 50C89.9762 27.9218 72.0782 10.0238 50 10.0238C27.9218 10.0238 10.0238 27.9218 10.0238 50Z" fill="url(#paint4_linear_812_3)"/>
<defs>
<linearGradient id="paint0_linear_812_3" x1="56.0904" y1="54.6292" x2="44.4026" y2="51.5406" gradientUnits="userSpaceOnUse">
<stop stop-color="#FFB45B"/>
<stop offset="1" stop-color="#FF8A00"/>
</linearGradient>
<linearGradient id="paint1_linear_812_3" x1="55.4004" y1="61.8459" x2="47.0846" y2="76.7723" gradientUnits="userSpaceOnUse">
<stop stop-color="#FFB45B"/>
<stop offset="1" stop-color="#FF8A00"/>
</linearGradient>
<linearGradient id="paint2_linear_812_3" x1="69.5881" y1="24.7537" x2="37.4497" y2="53.4785" gradientUnits="userSpaceOnUse">
<stop stop-color="#FFB45B"/>
<stop offset="1" stop-color="#FF8A00"/>
</linearGradient>
<linearGradient id="paint3_linear_812_3" x1="47.4335" y1="24.7369" x2="15.2951" y2="53.4617" gradientUnits="userSpaceOnUse">
<stop stop-color="#FFB45B"/>
<stop offset="1" stop-color="#FF8A00"/>
</linearGradient>
<linearGradient id="paint4_linear_812_3" x1="75.2658" y1="15.122" x2="30.4341" y2="92.4442" gradientUnits="userSpaceOnUse">
<stop stop-color="#FFB45B"/>
<stop offset="1" stop-color="#FF8A00"/>
</linearGradient>
</defs>
</svg>
