<svg width="25" height="24" viewBox="0 0 25 24" fill="none" xmlns="http://www.w3.org/2000/svg">
<path d="M12.9423 22C8.89581 22.0024 5.24675 19.5659 3.69792 15.8276C2.14909 12.0893 3.0058 7.78606 5.86826 4.92598C8.39555 2.39868 12.0792 1.41166 15.5315 2.33672C18.9839 3.26177 21.6805 5.95836 22.6055 9.41072C23.5306 12.8631 22.5436 16.5467 20.0163 19.074C18.1437 20.955 15.5964 22.0086 12.9423 22ZM4.94226 12.172C4.98957 16.5732 8.58336 20.1095 12.9848 20.086C17.3862 20.0622 20.9418 16.4875 20.9418 12.086C20.9418 7.68449 17.3862 4.10975 12.9848 4.08598C8.58336 4.06244 4.98957 7.59874 4.94226 12V12.172ZM10.3513 16L8.94226 14.59L11.5323 12L8.94226 9.40998L10.3523 7.99998L12.9423 10.59L15.5323 7.99998L16.9423 9.40998L14.3523 12L16.9423 14.59L15.5333 16L12.9423 13.41L10.3523 16H10.3513Z" fill="#A8A8A8"/>
</svg>
